<?xml version="1.0" encoding="UTF-8"?>
<svg width="14px" height="18px" viewBox="0 0 14 18" version="1.1" xmlns="http://www.w3.org/2000/svg" xmlns:xlink="http://www.w3.org/1999/xlink">
    <title>Gray white</title>
    <g id="Symbols" stroke="none" stroke-width="1" fill="none" fill-rule="evenodd">
        <g id="Icon/Gray-white" transform="translate(-5.000000, -3.000000)">
            <rect id="Rectangle" x="0" y="0" width="24" height="24"></rect>
            <path d="M14,18 C14.5522847,18 15,18.4477153 15,19 C15,19.5522847 14.5522847,20 14,20 L13,20 C13,20.5522847 12.5522847,21 12,21 C11.4477153,21 11,20.5522847 11,20 L10,20 C9.44771525,20 9,19.5522847 9,19 C9,18.4477153 9.44771525,18 10,18 L14,18 Z M9.5,17 C8.94771525,17 8.5,16.5522847 8.5,16 C8.5,15.791231 8.56397461,15.5974042 8.67338905,15.4370541 C8.6195217,15.3824757 8.5652537,15.3274589 8.51157351,15.2721708 L8.22556806,14.9706011 L7.67497899,14.3763893 C7.58449611,14.2804204 7.49428813,14.1866763 7.40380592,14.0961941 C6.22753728,12.9199254 5.5,11.2949254 5.5,9.5 C5.5,5.91014913 8.41014913,3 12,3 C15.5898509,3 18.5,5.91014913 18.5,9.5 C18.5,11.2949254 17.7724627,12.9199254 16.5961941,14.0961941 L16.4606078,14.2342342 L15.632665,15.1216622 C15.5323272,15.2276022 15.4301624,15.3331338 15.3255296,15.4370459 C15.4360254,15.5974042 15.5,15.791231 15.5,16 C15.5,16.5522847 15.0522847,17 14.5,17 L9.5,17 Z M12,5 C9.51471863,5 7.5,7.01471863 7.5,9.5 C7.5,10.6307283 7.91661296,11.6910939 8.65492125,12.5102104 L9.15720052,13.034247 L9.72733166,13.6484679 C10.6798133,14.6672092 11.2164596,15 12,15 C12.7345692,15 13.2521415,14.7075081 14.0987893,13.8315296 L15.0226442,12.8441764 L15.1819805,12.6819805 C16.0217453,11.8422157 16.5,10.7114947 16.5,9.5 C16.5,7.01471863 14.4852814,5 12,5 Z" id="Gray-white" fill="#FFFFFF" fill-rule="nonzero"></path>
        </g>
    </g>
</svg>