<?xml version="1.0" encoding="UTF-8"?>
<svg width="16px" height="16px" viewBox="0 0 16 16" version="1.1" xmlns="http://www.w3.org/2000/svg" xmlns:xlink="http://www.w3.org/1999/xlink">
    <title>B9EF67A2-9CC9-4EED-BA20-A6085E9878A5</title>
    <g id="Allgid" stroke="none" stroke-width="1" fill="none" fill-rule="evenodd">
        <g id="Guide---1081.0" transform="translate(-988.000000, -28.000000)">
            <rect fill="#FFFFFF" x="0" y="0" width="1081" height="668"></rect>
            <g id="Header">
                <rect id="Rectangle" fill="#2E2966" x="0" y="0" width="1081" height="56"></rect>
                <g id="Student" transform="translate(984.000000, 24.000000)">
                    <rect id="Rectangle" x="0" y="0" width="24" height="24"></rect>
                    <path d="M12,4 L20,7.2 L12,10.4 L6,8 L6.00070296,17.0856015 C6.53947209,17.2763327 6.93681662,17.7661799 6.99313342,18.35554 L7,18.5 C7,19.3284271 6.32842712,20 5.5,20 C4.67157288,20 4,19.3284271 4,18.5 C4,17.8467813 4.41754351,17.2910851 5.00029246,17.0852495 L5,7.6 L4,7.2 L12,4 Z M17,10 L17,15 C17,16.3807119 14.7614237,17.5 12,17.5 C9.32487074,17.5 7.14042161,16.4495743 7.00650597,15.1286497 L7,15 L7,10 L12,12 L17,10 Z" fill="#FFFFFF"></path>
                </g>
            </g>
        </g>
    </g>
</svg>