<?xml version="1.0" encoding="UTF-8"?>
<svg width="32px" height="32px" viewBox="0 0 32 32" version="1.1" xmlns="http://www.w3.org/2000/svg" xmlns:xlink="http://www.w3.org/1999/xlink">
    <title>Target white</title>
    <g id="Allgid" stroke="none" stroke-width="1" fill="none" fill-rule="evenodd">
        <g id="Allgid-Hover-4" transform="translate(-80.000000, -15.000000)" fill="#FFFFFF" fill-rule="nonzero">
            <g id="Group-12" transform="translate(80.000000, 15.000000)">
                <path d="M17,0 L17.0005699,3.037933 C23.3828536,3.52372201 28.476837,8.6180142 28.9621433,15.0004329 L32,15 L32,17 L28.962067,17.0005699 C28.4763034,23.3825194 23.3825194,28.4763034 17.0005699,28.962067 L17,32 L15,32 L15.0004329,28.9621433 C8.6180142,28.476837 3.52372201,23.3828536 3.037933,17.0005699 L0,17 L0,15 L3.03785671,15.0004329 C3.52318844,8.61767995 8.61767995,3.52318844 15.0004329,3.03785671 L15,0 L17,0 Z M17.0007248,5.04490836 L17,11 L15,11 L15.000274,5.04481833 C9.72291615,5.52025417 5.52025417,9.72291615 5.04481833,15.000274 L11,15 L11,17 L5.04490836,17.0007248 C5.52078445,22.2776141 9.72324908,26.4797758 15.000274,26.9551817 L15,21 L17,21 L17.0007248,26.9550916 C22.2772812,26.4792456 26.4792456,22.2772812 26.9550916,17.0007248 L21,17 L21,15 L26.9551817,15.000274 C26.4797758,9.72324908 22.2776141,5.52078445 17.0007248,5.04490836 Z" id="Target-white"></path>
            </g>
        </g>
    </g>
</svg>