<?xml version="1.0" encoding="UTF-8"?>
<svg width="24px" height="20px" viewBox="0 0 24 20" version="1.1" xmlns="http://www.w3.org/2000/svg" xmlns:xlink="http://www.w3.org/1999/xlink">
    <title>E89A5C3C-246A-434F-B04B-627EC033BF33</title>
    <g id="Allgid" stroke="none" stroke-width="1" fill="none" fill-rule="evenodd">
        <g id="Allgid-Notebooks---320" transform="translate(-20.000000, -18.000000)">
            <rect fill="#FFFFFF" x="0" y="0" width="320" height="1280"></rect>
            <g id="Header">
                <rect id="Rectangle" fill="#2E2966" x="0" y="0" width="320" height="56"></rect>
                <g id="Icon/Hamburger-32-White" transform="translate(16.000000, 12.000000)" fill="#FFFFFF">
                    <path d="M27,22 C27.5522847,22 28,22.4477153 28,23 L28,25 C28,25.5522847 27.5522847,26 27,26 L5,26 C4.44771525,26 4,25.5522847 4,25 L4,23 C4,22.4477153 4.44771525,22 5,22 L27,22 Z M27,14 C27.5522847,14 28,14.4477153 28,15 L28,17 C28,17.5522847 27.5522847,18 27,18 L5,18 C4.44771525,18 4,17.5522847 4,17 L4,15 C4,14.4477153 4.44771525,14 5,14 L27,14 Z M27,6 C27.5522847,6 28,6.44771525 28,7 L28,9 C28,9.55228475 27.5522847,10 27,10 L5,10 C4.44771525,10 4,9.55228475 4,9 L4,7 C4,6.44771525 4.44771525,6 5,6 L27,6 Z"></path>
                </g>
            </g>
        </g>
    </g>
</svg>