<?xml version="1.0" encoding="UTF-8"?>
<svg width="16px" height="16px" viewBox="0 0 16 16" version="1.1" xmlns="http://www.w3.org/2000/svg" xmlns:xlink="http://www.w3.org/1999/xlink">
    <title>4016FD85-A2F7-4F4B-A34D-6E2DF5700714</title>
    <g id="Allgid" stroke="none" stroke-width="1" fill="none" fill-rule="evenodd">
        <g id="Allgid-Hover-1" transform="translate(-1140.000000, -28.000000)">
            <rect fill="#FFFFFF" x="0" y="0" width="1280" height="1452"></rect>
            <g id="Header">
                <rect id="Rectangle" fill="#2E2966" x="0" y="0" width="1280" height="56"></rect>
                <rect id="Rectangle" x="1132" y="20" width="32" height="32" rx="4"></rect>
                <g id="Search" transform="translate(1136.000000, 24.000000)" fill="#FFFFFF">
                    <rect id="Rectangle" fill-opacity="0" x="0" y="0" width="24" height="24"></rect>
                    <path d="M15.9497475,6.05025253 C18.4430922,8.54359724 18.6622898,12.4499158 16.6073403,15.1916983 L20,18.58 L18.58,20 L15.192508,16.6067332 C12.450685,18.6623329 8.54384272,18.4433377 6.05025253,15.9497475 C3.31658249,13.2160774 3.31658249,8.78392257 6.05025253,6.05025253 C8.78392257,3.31658249 13.2160774,3.31658249 15.9497475,6.05025253 Z M14.5355339,7.46446609 C12.5829124,5.51184464 9.41708755,5.51184464 7.46446609,7.46446609 C5.51184464,9.41708755 5.51184464,12.5829124 7.46446609,14.5355339 C9.17183641,16.2429042 11.8391189,16.4733371 13.7992052,15.1445929 L13.9927948,15.0065182 L14.572,14.571 L15.0069516,13.9922166 C16.4392917,12.0811405 16.3099837,9.40764061 14.7013276,7.63832226 L14.5355339,7.46446609 Z" fill-rule="nonzero"></path>
                </g>
            </g>
        </g>
    </g>
</svg>