<?xml version="1.0" encoding="UTF-8"?>
<svg width="18px" height="18px" viewBox="0 0 18 18" version="1.1" xmlns="http://www.w3.org/2000/svg" xmlns:xlink="http://www.w3.org/1999/xlink">
    <title>F376A154-EC10-4296-BEA7-263BADAA9B00</title>
    <g id="Allgid" stroke="none" stroke-width="1" fill="none" fill-rule="evenodd">
        <g id="Allgid-Notebooks" transform="translate(-95.000000, -743.000000)">
            <rect fill="#FFFFFF" x="0" y="0" width="1280" height="1452"></rect>
            <g id="1" transform="translate(80.000000, 736.000000)">
                <path d="M4,0 L158,0 C160.209139,-4.05812251e-16 162,1.790861 162,4 L162,32 L162,32 L0,32 L0,4 C-2.705415e-16,1.790861 1.790861,4.05812251e-16 4,0 Z" id="Rectangle" fill="#4B4A8A"></path>
                <g id="Icon/Star-white" transform="translate(12.000000, 4.000000)">
                    <rect id="Rectangle" x="0" y="0" width="24" height="24"></rect>
                    <path d="M12.2490211,3.0708 C12.4822995,3.14892588 12.6653848,3.33201115 12.7435107,3.56528955 L14.546313,8.94833091 L20.2229861,8.99944653 C20.6560002,9.00334561 21.0038666,9.35753371 21.0000319,9.79054781 C20.9977524,10.036551 20.8802044,10.2672519 20.6824857,10.413641 L16.1200057,13.7916591 L17.8255803,19.2062917 C17.9556808,19.6193174 17.7263245,20.0596082 17.3132988,20.1897087 C17.0786513,20.2636212 16.8229174,20.2231169 16.6225946,20.0803119 L12.0000246,16.7850006 L7.3774546,20.0803119 C7.02484702,20.3316768 6.5352306,20.2496034 6.28386572,19.8969958 C6.14106077,19.696673 6.1005565,19.4409391 6.17446894,19.2062917 L7.88004355,13.7916591 L3.31756354,10.413641 C2.9695396,10.1559673 2.89629628,9.66495231 3.15396999,9.31692837 C3.30035911,9.11920965 3.53106001,9.00166167 3.77706318,8.99944653 L9.45373629,8.94833091 L11.2565386,3.56528955 C11.3940556,3.15467356 11.8384051,2.93328305 12.2490211,3.0708 Z M13.1026139,10.9354122 L12,7.643 L10.8974353,10.9354122 L7.425,10.966 L10.2159977,13.0326616 L9.172,16.344 L12.0000246,14.3288331 L14.827,16.344 L13.7840516,13.0326616 L16.574,10.966 L13.1026139,10.9354122 Z" id="Star-white" fill="#FFFFFF" fill-rule="nonzero"></path>
                </g>
            </g>
        </g>
    </g>
</svg>