<?xml version="1.0" encoding="UTF-8" standalone="no" ?>
<!DOCTYPE svg PUBLIC "-//W3C//DTD SVG 1.1//EN" "http://www.w3.org/Graphics/SVG/1.1/DTD/svg11.dtd">
<svg xmlns="http://www.w3.org/2000/svg" xmlns:xlink="http://www.w3.org/1999/xlink" version="1.1" width="18" height="18" viewBox="0 0 18 18" xml:space="preserve">
<desc>Created with Fabric.js 4.6.0</desc>
<defs>
</defs>
<!-- <g transform="matrix(1 0 0 1 0 18)" id="lWPt8FzvsWz8J0u-z0iIy"  >
<path style="stroke: rgb(0,0,0); stroke-width: 1; stroke-dasharray: none; stroke-linecap: butt; stroke-dashoffset: 0; stroke-linejoin: miter; stroke-miterlimit: 4; fill: rgb(255,255,255); fill-opacity: 0; fill-rule: nonzero; opacity: 1;" vector-effect="non-scaling-stroke"  transform=" translate(0, 0)" d="M 0 0" stroke-linecap="round" />
</g> -->
<g transform="matrix(1 0 0 1 2.34 9.06)" id="_7XBwlEuGhA2TbSq4ItZf"  >
<path style="stroke: rgb(255,255,355); stroke-opacity: 0.83; stroke-width: 1; stroke-dasharray: none; stroke-linecap: butt; stroke-dashoffset: 0; stroke-linejoin: miter; stroke-miterlimit: 4; fill: rgb(255,255,255); fill-opacity: 0.83; fill-rule: nonzero; opacity: 1;" vector-effect="non-scaling-stroke"  transform=" translate(0, 0)" d="M -2.09476 8.67651 L -2.09476 -8.6765 L 2.5629299999999997 -8.6765 L 2.5629299999999997 8.473319999999998 L -2.56292 8.473319999999998" stroke-linecap="round" />
</g>
<g transform="matrix(1 0 0 1 8.45 11.37)" id="hdMGk2hcJaZ2VNlAHNFJJ"  >
<path style="stroke: rgb(255,255,255); stroke-opacity: 0.83; stroke-width: 1; stroke-dasharray: none; stroke-linecap: butt; stroke-dashoffset: 0; stroke-linejoin: miter; stroke-miterlimit: 4; fill: rgb(255,255,255); fill-opacity: 0; fill-rule: nonzero; opacity: 1;" vector-effect="non-scaling-stroke"  transform=" translate(0, 0)" d="M -2.0339 6.32712 L -2.07458 -6.32712 L 2.46101 -6.32712 L 2.52203 6.184740000000001 L -2.5220399999999996 6.1440600000000005" stroke-linecap="round" />
</g>
<g transform="matrix(1 0 0 1 14.51 13.81)" id="UNLCu3aMII34u8sM8rnwD"  >
<path style="stroke: rgb(255,255,255); stroke-opacity: 0.83; stroke-width: 1; stroke-dasharray: none; stroke-linecap: butt; stroke-dashoffset: 0; stroke-linejoin: miter; stroke-miterlimit: 4; fill: rgb(255,255,255); fill-opacity: 0; fill-rule: nonzero; opacity: 1;" vector-effect="non-scaling-stroke"  transform=" translate(0, 0)" d="M -1.82034 3.80678 L -1.9017000000000002 -3.80678 L 2.2474499999999997 -3.80678 L 2.30847 3.7254199999999997 L -2.3084800000000003 3.6847399999999997" stroke-linecap="round" />
</g>
</svg>